<mxfile host="app.diagrams.net" modified="2023-05-08T09:58:25.488Z" agent="Mozilla/5.0 (Windows NT 10.0; Win64; x64) AppleWebKit/537.36 (KHTML, like Gecko) Chrome/112.0.0.0 Safari/537.36" version="21.2.9" etag="V-LL7lwPSisIK-VJlXgd" type="github">
  <diagram name="Trang-1" id="Vrt2z_NPbMc87I_DeSDq">
    <mxGraphModel>
      <root>
        <mxCell id="0" />
        <mxCell id="1" parent="0" />
      </root>
    </mxGraphModel>
  </diagram>
</mxfile>
